<svg version="1.1" id="Layer_2" xmlns="http://www.w3.org/2000/svg" xmlns:xlink="http://www.w3.org/1999/xlink" x="0px" y="0px"
	width="600px" height="600px" viewBox="0 0 600 600" enable-background="new 0 0 600 600" xml:space="preserve">
 <!-- <filter id="dropShadow">
    <feGaussianBlur in="Source" stdDeviation="7" />
    <feOffset dx="0" dy="0" />
    <feMerge>
        <feMergeNode />
        <feMergeNode in="SourceGraphic" />
    </feMerge>
  </filter> -->





<path  fill="none" stroke="#60D9FA" stroke-width="24" stroke-miterlimit="10" d="M299.529,197.628 c67.356,0,129.928,9.665,177.107,25.907c56.844,19.569,91.794,49.233,91.794,76.093c0,27.991-37.041,59.503-98.083,79.728
	c-46.151,15.291-106.879,23.272-170.818,23.272c-65.554,0-127.63-7.492-174.29-23.441c-59.046-20.182-94.611-52.103-94.611-79.559
	c0-26.642,33.37-56.076,89.415-75.616C167.398,207.503,231.515,197.628,299.529,197.628z"/>
<path  fill="none" stroke="#60D9FA" stroke-width="24" stroke-miterlimit="10" d="M210.736,248.922
	c33.649-58.348,73.281-107.724,110.92-140.48c45.35-39.466,88.507-54.923,111.775-41.505
	c24.248,13.983,33.042,61.814,20.067,124.796c-9.81,47.618-33.234,104.212-65.176,159.601
	c-32.749,56.788-70.25,106.819-107.377,139.272c-46.981,41.068-92.4,55.929-116.185,42.213
	c-23.079-13.31-31.906-56.921-20.834-115.233C153.281,368.316,176.758,307.841,210.736,248.922z"/>
<path  fill="none" stroke="#60D9FA" stroke-width="24" stroke-miterlimit="10" d="M210.821,351.482
	c-33.746-58.292-56.731-117.287-66.312-166.255c-11.544-58.999-3.382-104.109,19.864-117.566
	c24.224-14.024,70.055,2.244,118.14,44.94c36.356,32.28,73.688,80.837,105.723,136.173c32.844,56.733,57.461,114.209,67.036,162.582
	c12.117,61.213,2.309,107.984-21.453,121.74c-23.057,13.348-65.249-0.784-110.239-39.499
	C285.567,460.886,244.898,410.344,210.821,351.482z"/>
  <g transform="translate(238,230) scale(0.5)"  >
  <path   fill="#60D9FA" d="m127.251-22.679l-26.198,49.003c-2.974,5.326-8.297,4.834-13.625,1.858l-18.97-9.851l14.14,75.266
		c2.975,13.752-6.564,13.752-11.272,7.808L38.223,64.245l-5.376,18.872c-0.617,2.478-3.345,5.078-7.433,4.457l-41.855-8.82
		l10.994,40.08c2.354,8.92,4.187,12.613-2.377,14.967l-14.919,7.032l72.054,58.692c2.855,2.22,4.295,6.216,3.28,9.829l-6.307,20.753
		c24.806-2.863,47.054-5.434,71.859-8.297c2.205-0.028,3.646,1.199,3.63,3.741l-4.423,76.692h19.814l-4.424-76.692
		c-0.016-2.542,1.426-3.77,3.631-3.741c24.805,2.863,47.053,5.434,71.859,8.297l-6.307-20.753c-1.016-3.613,0.424-7.609,3.279-9.829
		l72.054-58.692l-14.919-7.032c-6.563-2.354-4.73-6.047-2.377-14.967l10.994-40.08l-41.855,8.82
		c-4.087,0.621-6.815-1.979-7.433-4.457l-5.376-18.872l-33.102,37.161c-4.707,5.944-14.246,5.944-11.271-7.808l14.139-75.266
		l-18.97,9.851c-5.329,2.976-10.651,3.468-13.626-1.858L127.251-22.679z"/>
  </g>
</svg>

