<?xml version="1.0" encoding="UTF-8" standalone="no"?>
<svg xmlns="http://www.w3.org/2000/svg" viewBox="0 0 232 232" version="1.1"  width="232" height="232" >
  <g
    stroke="#60d9fa"
    stroke-width="10"
    fill="none"
    transform="translate(116,116)"
  >
    <ellipse rx="110" ry="42" cx="0" cy="0"  />
    <ellipse
      rx="110"
      ry="42"
      transform="rotate(60)"
      cx="0"
      cy="0"
      id="ellipse1829"
    />
    <ellipse
      rx="110"
      ry="42"
      transform="rotate(120)"
      cx="0"
      cy="0"
    />
  </g>
  <g
    transform="matrix(3.6533417,0,0,3.6527469,87,87)"
    style="
      fill: #60d9fa;
      fill-opacity: 1;
      stroke: #60d9fa;
      stroke-width: 0.958105;
      stroke-opacity: 1;
    "
  >
    <path
      fill-rule="evenodd"
      d="m 4.854,4.146 a 0.5,0.5 0 0 1 0,0.708 L 1.707,8 4.854,11.146 a 0.5006316,0.5006316 0 0 1 -0.708,0.708 l -3.5,-3.5 a 0.5,0.5 0 0 1 0,-0.708 l 3.5,-3.5 a 0.5,0.5 0 0 1 0.708,0 z m 6.292,0 a 0.5,0.5 0 0 0 0,0.708 L 14.293,8 11.146,11.146 a 0.5006316,0.5006316 0 0 0 0.708,0.708 l 3.5,-3.5 a 0.5,0.5 0 0 0 0,-0.708 l -3.5,-3.5 a 0.5,0.5 0 0 0 -0.708,0 z M 10.147,1.022 a 0.5,0.5 0 0 1 0.33,0.625 l -4,13 A 0.5,0.5 0 0 1 5.522,14.353 l 4,-13 a 0.5,0.5 0 0 1 0.625,-0.33 z"
    />
  </g>
</svg>